<svg width="208" height="40" viewBox="0 0 208 40" fill="none" xmlns="http://www.w3.org/2000/svg">
<g filter="url(#filter0_d_1_9)">
<path d="M38.4555 6.33285C36.8819 2.85368 33.6241 0.489631 29.9895 0.132793C27.0418 -0.134835 24.1386 0.623445 21.8115 2.29612C21.7894 2.31843 21.7672 2.34072 21.745 2.34072C21.7228 2.31843 21.7008 2.29612 21.6786 2.29612C19.3294 0.623445 16.4261 -0.134835 13.5007 0.155096C9.84384 0.489631 6.60813 2.85368 5.01244 6.33285C3.30594 10.0573 3.77135 14.3394 6.29786 18.3761C9.97681 24.2639 16.271 28.4568 20.9028 30.9324L21.6342 31.2892V31.3115H21.6564H21.6786L22.565 30.9547C27.197 28.4791 33.5133 24.2862 37.17 18.3984C39.6966 14.3394 40.162 10.0573 38.4555 6.33285ZM34.156 16.2574C31.1198 21.1416 25.8451 24.7769 21.7008 27.0963V27.0295C17.5563 24.7323 12.3482 21.097 9.33411 16.2574C7.53895 13.3804 7.18435 10.4588 8.29248 8.00552C9.31194 5.77529 11.4839 4.19182 13.8109 3.9688C15.739 3.79038 17.5563 4.21412 19.0634 5.08392C18.1769 6.35515 17.5563 7.7825 17.2461 9.32135C16.6477 12.1538 17.1131 14.9192 18.4428 16.6812C19.3072 17.8185 20.4818 18.443 21.7228 18.4653C21.7228 18.4653 21.7228 18.4653 21.745 18.4653C21.745 18.4653 21.745 18.4653 21.7672 18.4653C23.0083 18.4653 24.1829 17.8185 25.0473 16.6812C26.3992 14.9192 26.8424 12.1538 26.244 9.32135C26.0224 8.25086 25.6456 7.22494 25.1359 6.26595C23.9834 6.91271 23.0305 7.82711 22.3434 8.94223C22.4986 9.32135 22.6094 9.74509 22.698 10.1688C23.1191 12.1984 22.698 13.6703 22.2105 14.2948C22.1439 14.4063 21.9445 14.6293 21.745 14.6293C21.5456 14.6293 21.3683 14.384 21.2797 14.2948C20.7921 13.648 20.371 12.1761 20.7921 10.1688C21.6121 6.17673 25.3575 3.58966 29.657 3.9911C32.0062 4.21412 34.1782 5.79759 35.1755 8.02783C36.3058 10.4588 35.929 13.3804 34.156 16.2574Z" fill="#FF9C08"/>
<path d="M47.828 21.2542V5.4551H53.637C54.8931 5.4551 55.9322 5.66576 56.7546 6.08707C57.577 6.50838 58.19 7.08767 58.5937 7.82497C58.9974 8.56228 59.1992 9.38981 59.1992 10.3077C59.1992 11.1804 59.0049 11.9854 58.6161 12.7227C58.2274 13.445 57.6218 14.0317 56.7994 14.4831C55.9771 14.9195 54.9229 15.1377 53.637 15.1377H50.6989V21.2542H47.828ZM50.6989 12.7904H53.4576C54.4594 12.7904 55.1771 12.5722 55.6107 12.1358C56.0593 11.6845 56.2836 11.075 56.2836 10.3077C56.2836 9.52522 56.0593 8.91588 55.6107 8.4795C55.1771 8.0281 54.4594 7.8024 53.4576 7.8024H50.6989V12.7904Z" fill="#090909"/>
<path d="M61.3843 21.2542V5.0037H64.2552V11.7747C64.629 11.1578 65.1299 10.6763 65.7578 10.3303C66.4008 9.9691 67.1335 9.78855 67.9558 9.78855C69.3315 9.78855 70.3931 10.2249 71.1407 11.0976C71.9033 11.9704 72.2845 13.2493 72.2845 14.9346V21.2542H69.4362V15.2054C69.4362 14.2424 69.2418 13.5051 68.853 12.9935C68.4792 12.4819 67.8811 12.2261 67.0588 12.2261C66.2513 12.2261 65.5784 12.512 65.0402 13.0838C64.5168 13.6556 64.2552 14.4531 64.2552 15.4762V21.2542H61.3843Z" fill="#090909"/>
<path d="M76.5773 8.32151C76.054 8.32151 75.6203 8.16352 75.2765 7.84754C74.9475 7.53155 74.783 7.13282 74.783 6.65132C74.783 6.16983 74.9475 5.77861 75.2765 5.47768C75.6203 5.16169 76.054 5.0037 76.5773 5.0037C77.1007 5.0037 77.5268 5.16169 77.8557 5.47768C78.1997 5.77861 78.3716 6.16983 78.3716 6.65132C78.3716 7.13282 78.1997 7.53155 77.8557 7.84754C77.5268 8.16352 77.1007 8.32151 76.5773 8.32151ZM75.1419 21.2542V10.0594H78.0127V21.2542H75.1419Z" fill="#090909"/>
<path d="M81.0092 21.2542V5.0037H83.8801V21.2542H81.0092Z" fill="#090909"/>
<path d="M90.6485 21.5251C89.692 21.5251 88.9071 21.3746 88.2937 21.0736C87.6807 20.7576 87.2247 20.3438 86.9256 19.8323C86.6265 19.3207 86.4771 18.7565 86.4771 18.1395C86.4771 17.1013 86.8808 16.2587 87.6879 15.6116C88.4954 14.9646 89.7071 14.6412 91.3213 14.6412H94.1473V14.3703C94.1473 13.6029 93.9305 13.0387 93.4971 12.6776C93.0636 12.3165 92.5255 12.1358 91.882 12.1358C91.2996 12.1358 90.7908 12.2788 90.3573 12.5647C89.9238 12.8355 89.6544 13.2418 89.5498 13.7835H86.7462C86.8209 12.9709 87.0901 12.2637 87.5536 11.6619C88.0318 11.06 88.6452 10.6011 89.3925 10.2851C90.1406 9.95411 90.9774 9.78855 91.9046 9.78855C93.4895 9.78855 94.7381 10.1873 95.6502 10.9848C96.5623 11.7822 97.0184 12.9107 97.0184 14.3703V21.2542H94.5741L94.3046 19.4486C93.9757 20.0504 93.5121 20.547 92.9138 20.9382C92.3305 21.3294 91.5757 21.5251 90.6485 21.5251ZM91.2996 19.268C92.1213 19.268 92.7573 18.9972 93.2059 18.4555C93.6695 17.9139 93.9607 17.2442 94.0803 16.4467H91.636C90.8728 16.4467 90.3272 16.5897 89.9983 16.8756C89.6695 17.1464 89.5046 17.485 89.5046 17.8913C89.5046 18.3276 89.6695 18.6662 89.9983 18.9069C90.3272 19.1476 90.7607 19.268 91.2996 19.268Z" fill="#090909"/>
<path d="M99.7581 21.2542V10.0594H102.292L102.516 11.9553C102.86 11.2932 103.354 10.7666 103.997 10.3754C104.655 9.98417 105.425 9.78855 106.307 9.78855C107.683 9.78855 108.751 10.2249 109.515 11.0976C110.277 11.9704 110.659 13.2493 110.659 14.9346V21.2542H107.787V15.2054C107.787 14.2424 107.593 13.5051 107.204 12.9935C106.816 12.4819 106.21 12.2261 105.387 12.2261C104.58 12.2261 103.915 12.512 103.392 13.0838C102.883 13.6556 102.629 14.4531 102.629 15.4762V21.2542H99.7581Z" fill="#090909"/>
<path d="M118.36 21.2542C117.194 21.2542 116.259 20.9683 115.556 20.3965C114.854 19.8248 114.502 18.8091 114.502 17.3496V12.4744H112.596V10.0594H114.502L114.838 7.05758H117.373V10.0594H120.379V12.4744H117.373V17.3721C117.373 17.9139 117.485 18.29 117.71 18.5006C117.949 18.6963 118.352 18.794 118.921 18.794H120.311V21.2542H118.36Z" fill="#090909"/>
<path d="M122.844 21.2542V5.0037H125.715V11.7747C126.088 11.1578 126.589 10.6763 127.217 10.3303C127.86 9.9691 128.592 9.78855 129.415 9.78855C130.791 9.78855 131.853 10.2249 132.6 11.0976C133.362 11.9704 133.744 13.2493 133.744 14.9346V21.2542H130.895V15.2054C130.895 14.2424 130.701 13.5051 130.312 12.9935C129.938 12.4819 129.341 12.2261 128.518 12.2261C127.71 12.2261 127.038 12.512 126.5 13.0838C125.976 13.6556 125.715 14.4531 125.715 15.4762V21.2542H122.844Z" fill="#090909"/>
<path d="M136.489 21.2542V10.0594H139.046L139.315 12.1584C139.719 11.4362 140.264 10.8644 140.952 10.4431C141.655 10.0067 142.478 9.78855 143.419 9.78855V12.8355H142.612C141.984 12.8355 141.423 12.9333 140.93 13.1289C140.437 13.3245 140.048 13.6631 139.764 14.1446C139.495 14.6261 139.36 15.2957 139.36 16.1533V21.2542H136.489Z" fill="#090909"/>
<path d="M150.522 21.5251C149.446 21.5251 148.474 21.2768 147.607 20.7802C146.755 20.2837 146.074 19.5991 145.566 18.7263C145.072 17.8386 144.826 16.8154 144.826 15.6568C144.826 14.4982 145.079 13.4825 145.588 12.6099C146.096 11.7221 146.777 11.0299 147.629 10.5334C148.496 10.0368 149.469 9.78855 150.545 9.78855C151.607 9.78855 152.563 10.0368 153.416 10.5334C154.283 11.0299 154.963 11.7221 155.457 12.6099C155.965 13.4825 156.219 14.4982 156.219 15.6568C156.219 16.8154 155.965 17.8386 155.457 18.7263C154.963 19.5991 154.283 20.2837 153.416 20.7802C152.548 21.2768 151.584 21.5251 150.522 21.5251ZM150.522 19.0198C151.27 19.0198 151.92 18.7414 152.474 18.1847C153.027 17.6129 153.304 16.7703 153.304 15.6568C153.304 14.5433 153.027 13.7082 152.474 13.1515C151.92 12.5797 151.278 12.2939 150.545 12.2939C149.782 12.2939 149.125 12.5797 148.572 13.1515C148.033 13.7082 147.764 14.5433 147.764 15.6568C147.764 16.7703 148.033 17.6129 148.572 18.1847C149.125 18.7414 149.775 19.0198 150.522 19.0198Z" fill="#090909"/>
<path d="M158.786 26.2196V10.0594H161.343L161.657 11.6619C162.016 11.1653 162.487 10.729 163.07 10.3528C163.668 9.97667 164.438 9.78855 165.38 9.78855C166.427 9.78855 167.362 10.0444 168.183 10.556C169.006 11.0675 169.656 11.7672 170.135 12.655C170.613 13.5427 170.853 14.5509 170.853 15.6794C170.853 16.8079 170.613 17.816 170.135 18.7037C169.656 19.5765 169.006 20.2686 168.183 20.7802C167.362 21.2768 166.427 21.5251 165.38 21.5251C164.543 21.5251 163.81 21.3671 163.182 21.051C162.554 20.7351 162.046 20.2912 161.657 19.7194V26.2196H158.786ZM164.775 18.9972C165.686 18.9972 166.442 18.6888 167.04 18.0718C167.638 17.4549 167.937 16.6574 167.937 15.6794C167.937 14.7013 167.638 13.8963 167.04 13.2643C166.442 12.6324 165.686 12.3165 164.775 12.3165C163.848 12.3165 163.085 12.6324 162.487 13.2643C161.904 13.8813 161.612 14.6787 161.612 15.6568C161.612 16.6349 161.904 17.4398 162.487 18.0718C163.085 18.6888 163.848 18.9972 164.775 18.9972Z" fill="#090909"/>
<path d="M173.8 26.2196L176.379 20.5094H175.706L171.378 10.0594H174.495L177.613 17.9364L180.865 10.0594H183.915L176.85 26.2196H173.8Z" fill="#090909"/>
<path d="M190.441 21.2542L195.353 13.2643L190.374 5.4551H193.671L197.192 10.9622L200.422 5.4551H203.652L198.74 13.3997L203.764 21.2542H200.467L196.9 15.6794L193.671 21.2542H190.441Z" fill="#090909"/>
</g>
<defs>
<filter id="filter0_d_1_9" x="0" y="0" width="208" height="40" filterUnits="userSpaceOnUse" color-interpolation-filters="sRGB">
<feFlood flood-opacity="0" result="BackgroundImageFix"/>
<feColorMatrix in="SourceAlpha" type="matrix" values="0 0 0 0 0 0 0 0 0 0 0 0 0 0 0 0 0 0 127 0" result="hardAlpha"/>
<feOffset dy="4"/>
<feGaussianBlur stdDeviation="2"/>
<feComposite in2="hardAlpha" operator="out"/>
<feColorMatrix type="matrix" values="0 0 0 0 0 0 0 0 0 0 0 0 0 0 0 0 0 0 0.25 0"/>
<feBlend mode="normal" in2="BackgroundImageFix" result="effect1_dropShadow_1_9"/>
<feBlend mode="normal" in="SourceGraphic" in2="effect1_dropShadow_1_9" result="shape"/>
</filter>
</defs>
</svg>
